# xmcd
#
# Track frame offsets:
#	150
#	10550
#	13702
#	27640
#	39387
#	51342
#	62057
#	68815
#	83997
#	93352
#	106317
#
# Disc length: 1575 seconds
#
# Revision: 1
# Processed by: cddbd v1.4PL0 Copyright (c) Steve Scherf et al.
# Submitted via: EasyCDDAExtractor 5.1.0
#
DISCID=8706250b
DTITLE=Opie Hendrix and the Texas Tallboys - Smashed Hits
DYEAR=1900
DGENRE=Country
TTITLE0=Everybody But Me
TTITLE1=You Don't Care
TTITLE2=Loneliness
TTITLE3=Ballad of Becky and Jason
TTITLE4=The Pretty One
TTITLE5=Fifty Dollar Bill
TTITLE6=Yellowhammer
TTITLE7=Texas (Bold as Love)
TTITLE8=Don't Bogart Me
TTITLE9=What a Wonderful World
TTITLE10=Elvis Was...
EXTD=
EXTT0=
EXTT1=
EXTT2=
EXTT3=
EXTT4=
EXTT5=
EXTT6=
EXTT7=
EXTT8=
EXTT9=
EXTT10=
PLAYORDER=
